<svg width="417" height="100" viewBox="0 0 417 100" fill="none" xmlns="http://www.w3.org/2000/svg">
<mask id="mask0_14_26" style="mask-type:luminance" maskUnits="userSpaceOnUse" x="0" y="0" width="100" height="100">
<path d="M100 0H0V100H100V0Z" fill="white"/>
<path d="M92 8L54 50L8 92L46 50L92 8Z" fill="black" stroke="black" stroke-width="4.5"/>
</mask>
<g mask="url(#mask0_14_26)">
<path d="M50 85C69.33 85 85 69.33 85 50C85 30.67 69.33 15 50 15C30.67 15 15 30.67 15 50C15 69.33 30.67 85 50 85Z" stroke="#103354" stroke-width="14"/>
</g>
<path d="M88.1796 4.99929L54.0346 50.147L11.8204 96.0007L45.9654 50.853L88.1796 4.99929Z" fill="#103354"/>
<path d="M304.478 77.6C301.028 77.6 297.703 77.2 294.503 76.4C291.353 75.55 288.853 74.5 287.003 73.25L290.903 64.85C292.753 66 294.928 66.95 297.428 67.7C299.978 68.4 302.478 68.75 304.928 68.75C307.628 68.75 309.528 68.425 310.628 67.775C311.778 67.125 312.353 66.225 312.353 65.075C312.353 64.125 311.903 63.425 311.003 62.975C310.153 62.475 309.003 62.1 307.553 61.85C306.103 61.6 304.503 61.35 302.753 61.1C301.053 60.85 299.328 60.525 297.578 60.125C295.828 59.675 294.228 59.025 292.778 58.175C291.328 57.325 290.153 56.175 289.253 54.725C288.403 53.275 287.978 51.4 287.978 49.1C287.978 46.55 288.703 44.3 290.153 42.35C291.653 40.4 293.803 38.875 296.603 37.775C299.403 36.625 302.753 36.05 306.653 36.05C309.403 36.05 312.203 36.35 315.053 36.95C317.903 37.55 320.278 38.425 322.178 39.575L318.278 47.9C316.328 46.75 314.353 45.975 312.353 45.575C310.403 45.125 308.503 44.9 306.653 44.9C304.053 44.9 302.153 45.25 300.953 45.95C299.753 46.65 299.153 47.55 299.153 48.65C299.153 49.65 299.578 50.4 300.428 50.9C301.328 51.4 302.503 51.8 303.953 52.1C305.403 52.4 306.978 52.675 308.678 52.925C310.428 53.125 312.178 53.45 313.928 53.9C315.678 54.35 317.253 55 318.653 55.85C320.103 56.65 321.278 57.775 322.178 59.225C323.078 60.625 323.528 62.475 323.528 64.775C323.528 67.275 322.778 69.5 321.278 71.45C319.778 73.35 317.603 74.85 314.753 75.95C311.953 77.05 308.528 77.6 304.478 77.6Z" fill="#103354"/>
<path d="M256.439 77.6C253.089 77.6 250.089 76.95 247.439 75.65C244.839 74.35 242.814 72.375 241.364 69.725C239.914 67.025 239.189 63.6 239.189 59.45V36.65H250.889V57.725C250.889 61.075 251.589 63.55 252.989 65.15C254.439 66.7 256.464 67.475 259.064 67.475C260.864 67.475 262.464 67.1 263.864 66.35C265.264 65.55 266.364 64.35 267.164 62.75C267.964 61.1 268.364 59.05 268.364 56.6V36.65H280.064V77H268.964V65.9L270.989 69.125C269.639 71.925 267.639 74.05 264.989 75.5C262.389 76.9 259.539 77.6 256.439 77.6Z" fill="#103354"/>
<path d="M223.321 77.6C218.571 77.6 214.871 76.4 212.221 74C209.571 71.55 208.246 67.925 208.246 63.125V27.725H219.946V62.975C219.946 64.675 220.396 66 221.296 66.95C222.196 67.85 223.421 68.3 224.971 68.3C226.821 68.3 228.396 67.8 229.696 66.8L232.846 75.05C231.646 75.9 230.196 76.55 228.496 77C226.846 77.4 225.121 77.6 223.321 77.6ZM202.021 46.55V37.55H229.996V46.55H202.021Z" fill="#103354"/>
<path d="M184.262 77V36.65H195.962V77H184.262ZM190.112 31.025C187.962 31.025 186.212 30.4 184.862 29.15C183.512 27.9 182.837 26.35 182.837 24.5C182.837 22.65 183.512 21.1 184.862 19.85C186.212 18.6 187.962 17.975 190.112 17.975C192.262 17.975 194.012 18.575 195.362 19.775C196.712 20.925 197.387 22.425 197.387 24.275C197.387 26.225 196.712 27.85 195.362 29.15C194.062 30.4 192.312 31.025 190.112 31.025Z" fill="#103354"/>
<path d="M156.33 77.6C152.78 77.6 149.73 76.85 147.18 75.35C144.63 73.85 142.68 71.575 141.33 68.525C139.98 65.425 139.305 61.525 139.305 56.825C139.305 52.075 140.005 48.175 141.405 45.125C142.855 42.075 144.855 39.8 147.405 38.3C149.955 36.8 152.93 36.05 156.33 36.05C160.13 36.05 163.53 36.9 166.53 38.6C169.58 40.3 171.98 42.7 173.73 45.8C175.53 48.9 176.43 52.575 176.43 56.825C176.43 61.025 175.53 64.675 173.73 67.775C171.98 70.875 169.58 73.3 166.53 75.05C163.53 76.75 160.13 77.6 156.33 77.6ZM132.48 77V21.35H144.18V44.825L143.43 56.75L143.655 68.75V77H132.48ZM154.305 68C156.255 68 157.98 67.55 159.48 66.65C161.03 65.75 162.255 64.475 163.155 62.825C164.105 61.125 164.58 59.125 164.58 56.825C164.58 54.475 164.105 52.475 163.155 50.825C162.255 49.175 161.03 47.9 159.48 47C157.98 46.1 156.255 45.65 154.305 45.65C152.355 45.65 150.605 46.1 149.055 47C147.505 47.9 146.28 49.175 145.38 50.825C144.48 52.475 144.03 54.475 144.03 56.825C144.03 59.125 144.48 61.125 145.38 62.825C146.28 64.475 147.505 65.75 149.055 66.65C150.605 67.55 152.355 68 154.305 68Z" fill="#103354"/>
<path d="M100.4 77V36.65H111.575V48.05L110 44.75C111.2 41.9 113.125 39.75 115.775 38.3C118.425 36.8 121.65 36.05 125.45 36.05V46.85C124.95 46.8 124.5 46.775 124.1 46.775C123.7 46.725 123.275 46.7 122.825 46.7C119.625 46.7 117.025 47.625 115.025 49.475C113.075 51.275 112.1 54.1 112.1 57.95V77H100.4Z" fill="#103354"/>
<path d="M400.462 77.5L390.857 54.635H397.699L405.689 74.3125H402.289L410.577 54.635H416.952L407.304 77.5H400.462Z" fill="#103354"/>
<path d="M379.208 77.84C376.601 77.84 374.306 77.33 372.323 76.31C370.368 75.29 368.852 73.9016 367.775 72.145C366.699 70.36 366.16 68.3341 366.16 66.0675C366.16 63.7725 366.685 61.7466 367.733 59.99C368.81 58.205 370.269 56.8166 372.11 55.825C373.952 54.805 376.035 54.295 378.358 54.295C380.596 54.295 382.608 54.7766 384.393 55.74C386.206 56.675 387.637 58.035 388.685 59.82C389.734 61.5766 390.258 63.6875 390.258 66.1525C390.258 66.4075 390.244 66.705 390.215 67.045C390.187 67.3566 390.159 67.6541 390.13 67.9375H371.558V64.07H386.645L384.095 65.2175C384.095 64.0275 383.855 62.9933 383.373 62.115C382.891 61.2366 382.225 60.5566 381.375 60.075C380.525 59.565 379.534 59.31 378.4 59.31C377.267 59.31 376.261 59.565 375.383 60.075C374.533 60.5566 373.867 61.2508 373.385 62.1575C372.904 63.0358 372.663 64.0841 372.663 65.3025V66.3225C372.663 67.5691 372.932 68.6741 373.47 69.6375C374.037 70.5725 374.816 71.295 375.808 71.805C376.828 72.2866 378.018 72.5275 379.378 72.5275C380.596 72.5275 381.659 72.3433 382.565 71.975C383.5 71.6066 384.35 71.0542 385.115 70.3175L388.643 74.1425C387.595 75.3325 386.277 76.2533 384.69 76.905C383.104 77.5283 381.276 77.84 379.208 77.84Z" fill="#103354"/>
<path d="M348.252 77.84C346.098 77.84 344.157 77.3583 342.429 76.395C340.701 75.4033 339.327 74.0292 338.307 72.2725C337.315 70.5158 336.819 68.4475 336.819 66.0675C336.819 63.6592 337.315 61.5767 338.307 59.82C339.327 58.0633 340.701 56.7033 342.429 55.74C344.157 54.7767 346.098 54.295 348.252 54.295C350.178 54.295 351.864 54.72 353.309 55.57C354.754 56.42 355.873 57.7092 356.667 59.4375C357.46 61.1658 357.857 63.3758 357.857 66.0675C357.857 68.7308 357.474 70.9408 356.709 72.6975C355.944 74.4258 354.839 75.715 353.394 76.565C351.977 77.415 350.263 77.84 348.252 77.84ZM349.399 72.4C350.476 72.4 351.453 72.145 352.332 71.635C353.21 71.125 353.904 70.4025 354.414 69.4675C354.952 68.5042 355.222 67.3708 355.222 66.0675C355.222 64.7358 354.952 63.6025 354.414 62.6675C353.904 61.7325 353.21 61.01 352.332 60.5C351.453 59.99 350.476 59.735 349.399 59.735C348.294 59.735 347.302 59.99 346.424 60.5C345.546 61.01 344.837 61.7325 344.299 62.6675C343.789 63.6025 343.534 64.7358 343.534 66.0675C343.534 67.3708 343.789 68.5042 344.299 69.4675C344.837 70.4025 345.546 71.125 346.424 71.635C347.302 72.145 348.294 72.4 349.399 72.4ZM355.392 77.5V72.825L355.519 66.025L355.094 59.2675V45.965H361.724V77.5H355.392Z" fill="#103354"/>
<path d="M330.068 77.84C328.934 77.84 327.957 77.4575 327.135 76.6925C326.342 75.8992 325.945 74.8933 325.945 73.675C325.945 72.4567 326.342 71.4792 327.135 70.7425C327.957 69.9775 328.934 69.595 330.068 69.595C331.229 69.595 332.207 69.9775 333 70.7425C333.793 71.4792 334.19 72.4567 334.19 73.675C334.19 74.8933 333.793 75.8992 333 76.6925C332.207 77.4575 331.229 77.84 330.068 77.84Z" fill="#103354"/>
</svg>
